<svg xmlns="http://www.w3.org/2000/svg" class="svg-inline--fa fa-user-tie fa-w-14 fa-9x" role="img" aria-hidden="true" viewBox="0 0 448 512" data-prefix="fas" data-icon="user-tie"><path class="" fill="currentColor" d="M 224 256 c 70.7 0 128 -57.3 128 -128 S 294.7 0 224 0 S 96 57.3 96 128 s 57.3 128 128 128 Z m 95.8 32.6 L 272 480 l -32 -136 l 32 -56 h -96 l 32 56 l -32 136 l -47.8 -191.4 C 56.9 292 0 350.3 0 422.4 V 464 c 0 26.5 21.5 48 48 48 h 352 c 26.5 0 48 -21.5 48 -48 v -41.6 c 0 -72.1 -56.9 -130.4 -128.2 -133.8 Z" /></svg>